<?xml version="1.0" encoding="utf-8"?>
<!-- Generator: Adobe Illustrator 16.0.0, SVG Export Plug-In . SVG Version: 6.00 Build 0)  -->
<!DOCTYPE svg PUBLIC "-//W3C//DTD SVG 1.1//EN" "http://www.w3.org/Graphics/SVG/1.1/DTD/svg11.dtd">
<svg version="1.1" id="图层_1" xmlns="http://www.w3.org/2000/svg" xmlns:xlink="http://www.w3.org/1999/xlink" x="0px" y="0px"
	 width="889px" height="548px" viewBox="0 0 889 548" enable-background="new 0 0 889 548" xml:space="preserve">
<rect fill="#202B33" width="889" height="548"/>
<g>
	<circle fill="#FFFFFF" cx="44.703" cy="32.5" r="6.703"/>
	<circle fill="#FFFFFF" cx="71.516" cy="32.5" r="6.703"/>
	<circle fill="#FFFFFF" cx="98.328" cy="32.5" r="6.703"/>
</g>
<path fill="none" d="M-36,557"/>
<path fill="none" stroke="#4D4D4D" stroke-width="2" stroke-miterlimit="10" d="M789,567"/>
<path fill="none" stroke="#4D4D4D" stroke-width="2" stroke-miterlimit="10" d="M-38,567"/>
<path fill="none" stroke="#4D4D4D" stroke-width="2" stroke-miterlimit="10" d="M62,325.333"/>
<path fill="none" stroke="#4D4D4D" stroke-width="2" stroke-miterlimit="10" d="M-29,575"/>
<rect x="42" y="174" fill="#3C5059" width="212" height="52"/>
<rect x="288" y="118" fill="#212327" width="560" height="391"/>
<rect x="320" y="148.333" fill="none" width="504" height="334.667"/>
<rect x="98" y="118" fill="#004C1F" width="156" height="39"/>
<rect x="41" y="118" fill="#004C1F" width="42" height="39"/>
<rect x="87" y="193" fill="none" width="61" height="27"/>
<text transform="matrix(1 0 0 1 87 206.6875)" fill="#B3B3B3" font-family="'Roboto-Light'" font-size="16">RULE</text>
<rect x="58" y="194" fill="#777777" width="15" height="15"/>
<circle fill="#00A585" cx="226.5" cy="200.5" r="9.5"/>
<rect x="42" y="244" fill="#2E3D42" width="212" height="52"/>
<rect x="42" y="314" fill="#2E3D42" width="212" height="52"/>
<rect x="42" y="385" fill="#2E3D42" width="212" height="52"/>
<rect x="42" y="457" fill="#2E3D42" width="212" height="52"/>
<text transform="matrix(1 0 0 1 322.249 166)" fill="#F90066" font-family="'Consolas'" font-size="21">name</text>
<text transform="matrix(1 0 0 1 322.249 191.2002)" fill="#F2F2F2" font-family="'Consolas'" font-size="21" letter-spacing="23"> </text>
<text transform="matrix(1 0 0 1 358.249 191.2002)" fill="#45BC00" font-family="'Consolas'" font-size="21">“&lt;name&gt;”</text>
<text transform="matrix(1 0 0 1 322.249 241.5996)" fill="#F90066" font-family="'Consolas'" font-size="21">description</text>
<text transform="matrix(1 0 0 1 322.249 266.7998)" fill="#F2F2F2" font-family="'Consolas'" font-size="21" letter-spacing="23"> </text>
<text transform="matrix(1 0 0 1 358.249 266.7998)" fill="#45BC00" font-family="'Consolas'" font-size="21">“&lt;description&gt;”</text>
<text transform="matrix(1 0 0 1 322.249 317.2002)" fill="#F90066" font-family="'Consolas'" font-size="21">if</text>
<text transform="matrix(1 0 0 1 322.249 342.3994)" fill="#F2F2F2" font-family="'Consolas'" font-size="21" letter-spacing="23"> </text>
<text transform="matrix(1 0 0 1 358.249 342.3994)" fill="#8037F4" font-family="'Consolas'" font-size="21">region</text>
<text transform="matrix(1 0 0 1 322.249 367.5996)" fill="#F2F2F2" font-family="'Consolas'" font-size="21" letter-spacing="23"> </text>
<text transform="matrix(1 0 0 1 358.249 367.5996)" fill="#F2F2F2" font-family="'Consolas'" font-size="21">.</text>
<text transform="matrix(1 0 0 1 369.7949 367.5996)" enable-background="new    "><tspan x="0" y="0" fill="#8037F4" font-family="'Consolas'" font-size="21">instance</tspan><tspan x="92.367" y="0" fill="#FFFFFF" font-family="'Consolas'" font-size="21">(tagSet</tspan><tspan x="173.188" y="0" fill="#FFFFFF" font-family="'Consolas'" font-size="21">[</tspan><tspan x="184.734" y="0" fill="#007015" font-family="'Consolas'" font-size="21">”role”</tspan><tspan x="254.01" y="0" fill="#FFFFFF" font-family="'Consolas'" font-size="21">]</tspan><tspan x="265.556" y="0" fill="#F90066" font-family="'Consolas'" font-size="21"> = </tspan><tspan x="300.193" y="0" fill="#007015" font-family="'Consolas'" font-size="21">“db”</tspan><tspan x="346.377" y="0" fill="#F90066" font-family="'Consolas'" font-size="21">,</tspan><tspan x="0" y="25.2" fill="#FFFFFF" font-family="'Consolas'" font-size="21">ipAddress</tspan><tspan x="103.913" y="25.2" fill="#F90066" font-family="'Consolas'" font-size="21"> != null</tspan><tspan x="196.28" y="25.2" fill="#FFFFFF" font-family="'Consolas'" font-size="21">)</tspan></text>
<text transform="matrix(1 0 0 1 693.0801 367.5996)" fill="#F2F2F2" font-family="'Consolas'" font-size="21"> </text>
<text transform="matrix(1 0 0 1 322.249 443.2002)" fill="#F90066" font-family="'Consolas'" font-size="21">do</text>
<text transform="matrix(1 0 0 1 322.249 443.2002)" fill="#F2F2F2" font-family="'Consolas'" font-size="21" letter-spacing="23"> </text>
<text transform="matrix(1 0 0 1 358.249 468.4004)" fill="#158DF9" font-family="'Consolas'" font-size="21">email</text>
<text transform="matrix(1 0 0 1 415.978 468.4004)" fill="#F2F2F2" font-family="'Consolas'" font-size="21">()</text>
</svg>
